<svg id="Layer_1" data-name="Layer 1" xmlns="http://www.w3.org/2000/svg" viewBox="0 0 300 370"><defs><style>.cls-1{fill:#fff;}.cls-2,.cls-4{fill:#0071bc;}.cls-2,.cls-3{stroke:#0071bc;stroke-miterlimit:10;stroke-width:3px;}.cls-3{fill:none;}.cls-5{fill:#00823b;}.cls-6{fill:#af1324;}</style></defs><title>Artboard 1</title><rect class="cls-1" x="2.5" y="7.5" width="199" height="39"/><path d="M201,8V46H3V8H201m1-1H2V47H202V7Z"/><path d="M11.63,28.32a5.12,5.12,0,0,0,.53.49,3.74,3.74,0,0,0,.7.43,4,4,0,0,0,.82.31,4.21,4.21,0,0,0,1,.11,2.32,2.32,0,0,0,1.47-.4,1.22,1.22,0,0,0,.51-1,1,1,0,0,0-.44-.92,4,4,0,0,0-1.43-.49l-.35-.06a11.37,11.37,0,0,1-1.4-.33,4.53,4.53,0,0,1-1.26-.58,3.08,3.08,0,0,1-.91-1,2.86,2.86,0,0,1-.35-1.51,2.9,2.9,0,0,1,.23-1.11,3.07,3.07,0,0,1,.75-1.07,3.88,3.88,0,0,1,1.32-.8,5.39,5.39,0,0,1,2-.31,6.19,6.19,0,0,1,2.43.45,4.54,4.54,0,0,1,1.72,1.18l-1.5,1.41a3.16,3.16,0,0,0-1.19-.8,4,4,0,0,0-1.49-.29,2.39,2.39,0,0,0-1.38.34,1,1,0,0,0-.49.87,1,1,0,0,0,.16.59,1.14,1.14,0,0,0,.45.38,3.22,3.22,0,0,0,.69.26l.91.2.18,0a12.25,12.25,0,0,1,1.33.32,4.07,4.07,0,0,1,1.21.56,2.83,2.83,0,0,1,.88,1A3.15,3.15,0,0,1,19,28.11a3,3,0,0,1-.36,1.49,3.49,3.49,0,0,1-.92,1.1,4,4,0,0,1-1.34.69,5.54,5.54,0,0,1-1.58.23,8.13,8.13,0,0,1-1.53-.14,5.91,5.91,0,0,1-1.29-.4,5.54,5.54,0,0,1-1-.58,4.76,4.76,0,0,1-.78-.68Z"/><path d="M23.74,29a.82.82,0,0,0,0,.28.49.49,0,0,0,.14.23.63.63,0,0,0,.28.16,1.83,1.83,0,0,0,.46.05h.26l.3,0,.28,0,.21,0,.2,1.91-.64.07-.62.05-.7,0a2.69,2.69,0,0,1-1.74-.51,1.92,1.92,0,0,1-.62-1.61V25H20.08V23.1h1.51V20.73l2.15-.58v3h2.2V25h-2.2Z"/><path d="M32,30.68a3.2,3.2,0,0,1-.32.31,2.55,2.55,0,0,1-.45.31,3,3,0,0,1-.62.23,3.18,3.18,0,0,1-.79.09,3.09,3.09,0,0,1-1.15-.2,2.77,2.77,0,0,1-.92-.56,2.54,2.54,0,0,1-.63-.83,2.36,2.36,0,0,1-.23-1,2.22,2.22,0,0,1,.63-1.64,2.93,2.93,0,0,1,1.73-.81l2.4-.35V26a1.18,1.18,0,0,0-.34-.89,1.58,1.58,0,0,0-1.12-.33,3,3,0,0,0-.65.08,5.79,5.79,0,0,0-.63.17,4.63,4.63,0,0,0-.56.21l-.45.22L27,23.85a7.45,7.45,0,0,1,1.6-.66,6.46,6.46,0,0,1,1.82-.26,5.31,5.31,0,0,1,1.17.13,2.89,2.89,0,0,1,1.07.44,2.36,2.36,0,0,1,.78.87,2.77,2.77,0,0,1,.31,1.4v3.44a.7.7,0,0,0,.19.54,1.65,1.65,0,0,0,.53.32l-1,1.55a1.94,1.94,0,0,1-1-.31A2,2,0,0,1,32,30.68ZM30,28.07a1.25,1.25,0,0,0-.65.27.76.76,0,0,0-.24.59,1,1,0,0,0,.3.7,1.23,1.23,0,0,0,.88.29,1.33,1.33,0,0,0,1-.35,1.29,1.29,0,0,0,.35-.93v-.85Z"/><path d="M40.26,25.19H40a3.6,3.6,0,0,0-.88.1,1.79,1.79,0,0,0-.74.34,1.76,1.76,0,0,0-.51.67,2.71,2.71,0,0,0-.19,1.1v4.07H35.55V23.1h2.16V24a2.07,2.07,0,0,1,.34-.4,2.62,2.62,0,0,1,.5-.35,3.31,3.31,0,0,1,.63-.25,3,3,0,0,1,.76-.09h.32Z"/><path d="M44.69,29a.82.82,0,0,0,0,.28.48.48,0,0,0,.13.23.69.69,0,0,0,.28.16,1.89,1.89,0,0,0,.46.05h.27l.29,0,.28,0,.22,0,.19,1.91-.63.07-.63.05-.69,0a2.65,2.65,0,0,1-1.74-.51,1.93,1.93,0,0,1-.63-1.61V25H41V23.1h1.51V20.73l2.16-.58v3h2.19V25H44.69Z"/><path d="M53.28,34.11H51.12v-11h2.16v.72a3,3,0,0,1,.87-.63,2.78,2.78,0,0,1,1.25-.26,3.24,3.24,0,0,1,1.5.34,3.43,3.43,0,0,1,1.16.91,4,4,0,0,1,.75,1.38,5.36,5.36,0,0,1,.27,1.73A5,5,0,0,1,58.8,29,4.19,4.19,0,0,1,58,30.39a3.6,3.6,0,0,1-1.18.9,3.46,3.46,0,0,1-1.52.33,3.37,3.37,0,0,1-.66-.06,3.07,3.07,0,0,1-.56-.19,2.69,2.69,0,0,1-.46-.28,3.07,3.07,0,0,1-.38-.34Zm-.06-6.05a1.59,1.59,0,0,0,.12.62,1.47,1.47,0,0,0,.89.82,2,2,0,0,0,.72.12,1.78,1.78,0,0,0,.81-.17,1.63,1.63,0,0,0,.6-.47,2.23,2.23,0,0,0,.37-.72,3.36,3.36,0,0,0,.12-.92v-.1a3.36,3.36,0,0,0-.12-.92,2.28,2.28,0,0,0-.37-.73,1.56,1.56,0,0,0-.6-.48,1.79,1.79,0,0,0-.81-.18,2,2,0,0,0-.72.12,1.63,1.63,0,0,0-.54.33,1.46,1.46,0,0,0-.35.5,1.59,1.59,0,0,0-.12.62Z"/><path d="M65.17,30.68a3.2,3.2,0,0,1-.32.31,2.31,2.31,0,0,1-.46.31,2.68,2.68,0,0,1-.61.23,3.18,3.18,0,0,1-.79.09,3.09,3.09,0,0,1-1.15-.2,2.92,2.92,0,0,1-.93-.56,2.66,2.66,0,0,1-.62-.83,2.36,2.36,0,0,1-.23-1,2.22,2.22,0,0,1,.63-1.64,2.9,2.9,0,0,1,1.72-.81l2.41-.35V26a1.18,1.18,0,0,0-.34-.89,1.58,1.58,0,0,0-1.12-.33,3,3,0,0,0-.65.08,5.79,5.79,0,0,0-.63.17,4.63,4.63,0,0,0-.56.21l-.45.22-.84-1.65a7.58,7.58,0,0,1,1.59-.66,6.58,6.58,0,0,1,1.83-.26,5.31,5.31,0,0,1,1.17.13,2.89,2.89,0,0,1,1.07.44,2.36,2.36,0,0,1,.78.87,2.77,2.77,0,0,1,.31,1.4v3.44a.7.7,0,0,0,.19.54,1.65,1.65,0,0,0,.53.32l-1,1.55a1.91,1.91,0,0,1-1-.31A2,2,0,0,1,65.17,30.68Zm-2-2.61a1.25,1.25,0,0,0-.64.27.76.76,0,0,0-.24.59,1,1,0,0,0,.3.7,1.2,1.2,0,0,0,.87.29,1.34,1.34,0,0,0,1-.35,1.29,1.29,0,0,0,.35-.93v-.85Z"/><path d="M73.86,30a1.89,1.89,0,0,1-.81.56,3,3,0,0,1-1.13.21,3.59,3.59,0,0,1-1.5-.3,3.11,3.11,0,0,1-1.1-.82,3.51,3.51,0,0,1-.69-1.23,4.82,4.82,0,0,1-.24-1.56,4.89,4.89,0,0,1,.24-1.55,3.56,3.56,0,0,1,.69-1.24,3.11,3.11,0,0,1,1.1-.82,3.59,3.59,0,0,1,1.5-.3,2.81,2.81,0,0,1,1.13.22,1.89,1.89,0,0,1,.81.56V23.1H76v8.29a2.79,2.79,0,0,1-.29,1.31,2.6,2.6,0,0,1-.8.91,3.5,3.5,0,0,1-1.16.51,6.41,6.41,0,0,1-1.41.16,8.62,8.62,0,0,1-1.91-.22,8.88,8.88,0,0,1-1.71-.53l.61-1.75.54.21a5.71,5.71,0,0,0,.69.19c.24.06.5.11.77.15a5.32,5.32,0,0,0,.78.06,2.76,2.76,0,0,0,.65-.07,1.59,1.59,0,0,0,.55-.22,1.09,1.09,0,0,0,.38-.39,1.22,1.22,0,0,0,.15-.63Zm-3.24-3.11a3.21,3.21,0,0,0,.09.78,1.55,1.55,0,0,0,.29.62,1.25,1.25,0,0,0,.51.39,1.7,1.7,0,0,0,.75.15,1.41,1.41,0,0,0,1.26-.56,2.41,2.41,0,0,0,.37-1.38v-.06A3.13,3.13,0,0,0,73.8,26a1.53,1.53,0,0,0-.28-.62A1.24,1.24,0,0,0,73,25a1.72,1.72,0,0,0-.76-.15,1.43,1.43,0,0,0-1.26.56,2.41,2.41,0,0,0-.38,1.38Z"/><path d="M79.68,28a2,2,0,0,0,.24.69,2,2,0,0,0,.46.54,2.39,2.39,0,0,0,.65.35,2.56,2.56,0,0,0,.79.12,3.39,3.39,0,0,0,1-.18,3.57,3.57,0,0,0,1-.54l1,1.51a4.73,4.73,0,0,1-1.44.8,5.47,5.47,0,0,1-1.82.3,4.41,4.41,0,0,1-1.63-.3,3.83,3.83,0,0,1-1.34-.85,4.06,4.06,0,0,1-.91-1.37,4.75,4.75,0,0,1-.33-1.81,5,5,0,0,1,.29-1.72,4.37,4.37,0,0,1,.82-1.39,3.7,3.7,0,0,1,1.26-.91,3.81,3.81,0,0,1,1.63-.34,3.92,3.92,0,0,1,1.54.3A3.76,3.76,0,0,1,85,25.38a4.47,4.47,0,0,1,.3,1.67v1Zm1.75-3.22a1.64,1.64,0,0,0-1.18.46,1.81,1.81,0,0,0-.55,1.13h3.37a1.61,1.61,0,0,0-1.64-1.59Z"/><rect class="cls-1" x="2.5" y="67.5" width="199" height="39"/><path d="M201,68v38H3V68H201m1-1H2v40H202V67Z"/><path d="M12.13,88.32a5.12,5.12,0,0,0,.53.49,3.74,3.74,0,0,0,.7.43,4,4,0,0,0,.82.31,4.21,4.21,0,0,0,1,.11,2.32,2.32,0,0,0,1.47-.4,1.22,1.22,0,0,0,.51-1,1,1,0,0,0-.44-.92,4,4,0,0,0-1.43-.49l-.35-.06a11.37,11.37,0,0,1-1.4-.33,4.53,4.53,0,0,1-1.26-.58,3.08,3.08,0,0,1-.91-1A2.86,2.86,0,0,1,11,83.4a2.9,2.9,0,0,1,.23-1.11A3.07,3.07,0,0,1,12,81.22a3.88,3.88,0,0,1,1.32-.8,5.39,5.39,0,0,1,2-.31,6.19,6.19,0,0,1,2.43.45,4.54,4.54,0,0,1,1.72,1.18l-1.5,1.41a3.16,3.16,0,0,0-1.19-.8,4,4,0,0,0-1.49-.29,2.39,2.39,0,0,0-1.38.34,1,1,0,0,0-.49.87,1,1,0,0,0,.16.59,1.14,1.14,0,0,0,.45.38,3.22,3.22,0,0,0,.69.26l.91.2.18,0a12.25,12.25,0,0,1,1.33.32,4.07,4.07,0,0,1,1.21.56,2.83,2.83,0,0,1,.88,1,3.15,3.15,0,0,1,.34,1.53,3,3,0,0,1-.36,1.49,3.49,3.49,0,0,1-.92,1.1,4,4,0,0,1-1.34.69,5.54,5.54,0,0,1-1.58.23,8.13,8.13,0,0,1-1.53-.14,5.91,5.91,0,0,1-1.29-.4,5.54,5.54,0,0,1-1-.58,4.76,4.76,0,0,1-.78-.68Z"/><path d="M20.93,80.9a1.24,1.24,0,0,1,.1-.5,1.34,1.34,0,0,1,.28-.42,1.46,1.46,0,0,1,.41-.27,1.22,1.22,0,0,1,.51-.1,1.24,1.24,0,0,1,.5.1,1.33,1.33,0,0,1,.41.27,1.34,1.34,0,0,1,.28.42,1.24,1.24,0,0,1,.1.5,1.22,1.22,0,0,1-.1.51,1.3,1.3,0,0,1-.28.41,1.2,1.2,0,0,1-.41.28,1.24,1.24,0,0,1-.5.1,1.22,1.22,0,0,1-.51-.1,1.34,1.34,0,0,1-.69-.69A1.22,1.22,0,0,1,20.93,80.9Zm2.38,10.57H21.16V83.1h2.15Z"/><path d="M30.26,90a2,2,0,0,1-.81.56,3,3,0,0,1-1.13.21,3.59,3.59,0,0,1-1.5-.3,3.15,3.15,0,0,1-1.11-.82A3.66,3.66,0,0,1,25,88.4a4.82,4.82,0,0,1-.24-1.56A4.89,4.89,0,0,1,25,85.29a3.71,3.71,0,0,1,.68-1.24,3.15,3.15,0,0,1,1.11-.82,3.59,3.59,0,0,1,1.5-.3,2.81,2.81,0,0,1,1.13.22,2,2,0,0,1,.81.56V83.1h2.15v8.29a2.67,2.67,0,0,1-.29,1.31,2.48,2.48,0,0,1-.79.91,3.5,3.5,0,0,1-1.16.51,6.5,6.5,0,0,1-1.42.16,8.6,8.6,0,0,1-1.9-.22,8.88,8.88,0,0,1-1.71-.53l.61-1.75.54.21a5.71,5.71,0,0,0,.69.19c.24.06.5.11.77.15a5.22,5.22,0,0,0,.78.06,2.81,2.81,0,0,0,.65-.07,1.59,1.59,0,0,0,.55-.22,1.09,1.09,0,0,0,.38-.39,1.22,1.22,0,0,0,.15-.63ZM27,86.87a3.21,3.21,0,0,0,.09.78,1.68,1.68,0,0,0,.28.62,1.39,1.39,0,0,0,.51.39,1.75,1.75,0,0,0,.76.15,1.41,1.41,0,0,0,1.26-.56,2.49,2.49,0,0,0,.37-1.38v-.06A3.13,3.13,0,0,0,30.2,86a1.53,1.53,0,0,0-.28-.62,1.31,1.31,0,0,0-.5-.4,1.75,1.75,0,0,0-.76-.15,1.43,1.43,0,0,0-1.26.56A2.34,2.34,0,0,0,27,86.81Z"/><path d="M34.27,83.1h2.16v.72a2.64,2.64,0,0,1,.39-.34,3.07,3.07,0,0,1,.47-.28,2.93,2.93,0,0,1,.57-.19,3.06,3.06,0,0,1,.7-.08,3.12,3.12,0,0,1,1.22.23,2.65,2.65,0,0,1,.91.61,2.69,2.69,0,0,1,.57.91,3.25,3.25,0,0,1,.19,1.14v5.65H39.3V86.6a2.75,2.75,0,0,0-.1-.76,1.42,1.42,0,0,0-.28-.5,1.19,1.19,0,0,0-.42-.28A1.46,1.46,0,0,0,38,85a1.58,1.58,0,0,0-.61.12,1.33,1.33,0,0,0-.49.36,1.36,1.36,0,0,0-.33.59,2.68,2.68,0,0,0-.12.85v4.58H34.27Z"/><path d="M45.91,80.9a1.24,1.24,0,0,1,.1-.5,1.34,1.34,0,0,1,.28-.42,1.33,1.33,0,0,1,.41-.27,1.18,1.18,0,0,1,.5-.1,1.25,1.25,0,0,1,.51.1,1.46,1.46,0,0,1,.41.27,1.34,1.34,0,0,1,.28.42,1.24,1.24,0,0,1,.1.5,1.22,1.22,0,0,1-.1.51,1.34,1.34,0,0,1-.69.69,1.25,1.25,0,0,1-.51.1,1.18,1.18,0,0,1-.5-.1,1.2,1.2,0,0,1-.41-.28,1.3,1.3,0,0,1-.28-.41A1.22,1.22,0,0,1,45.91,80.9Zm2.38,10.57H46.13V83.1h2.16Z"/><path d="M50.15,83.1H52.3v.72a4.32,4.32,0,0,1,.39-.34,3.07,3.07,0,0,1,.47-.28,3.29,3.29,0,0,1,.58-.19,3,3,0,0,1,.7-.08,3.16,3.16,0,0,1,1.22.23,2.65,2.65,0,0,1,.91.61,2.83,2.83,0,0,1,.56.91,3.25,3.25,0,0,1,.2,1.14v5.65H55.17V86.6a2.41,2.41,0,0,0-.1-.76,1.42,1.42,0,0,0-.28-.5,1.07,1.07,0,0,0-.41-.28,1.46,1.46,0,0,0-.52-.09,1.54,1.54,0,0,0-.61.12,1.36,1.36,0,0,0-.5.36,1.6,1.6,0,0,0-.33.59,2.68,2.68,0,0,0-.12.85v4.58H50.15Z"/><rect class="cls-1" x="2.5" y="127.5" width="199" height="39"/><path d="M201,128v38H3V128H201m1-1H2v40H202V127Z"/><path d="M14.93,142.2a2,2,0,0,0-.81.15,1.81,1.81,0,0,0-.57.41,1.76,1.76,0,0,0-.33.62,2.76,2.76,0,0,0-.11.77l-2.32-.21a3.83,3.83,0,0,1,.33-1.63A3.44,3.44,0,0,1,12,141.1a3.91,3.91,0,0,1,1.31-.74,5.5,5.5,0,0,1,3.34,0,3.91,3.91,0,0,1,1.32.78,3.32,3.32,0,0,1,.85,1.2,3.88,3.88,0,0,1,.3,1.54,4.08,4.08,0,0,1-.36,1.7,6.14,6.14,0,0,1-1,1.47,8.7,8.7,0,0,1-1.38,1.24,15.92,15.92,0,0,1-1.61,1l-.21.11h4.67v2.05H11.08v-2c.42-.22.85-.47,1.29-.73s.87-.53,1.28-.82.81-.58,1.18-.88a7.25,7.25,0,0,0,1-1,4.78,4.78,0,0,0,.66-1,2.65,2.65,0,0,0,.24-1.09,2,2,0,0,0-.11-.64,1.72,1.72,0,0,0-.33-.55,1.57,1.57,0,0,0-.54-.39A1.87,1.87,0,0,0,14.93,142.2Z"/><path d="M20.38,145.5h3.35v1.93H20.38Z"/><path d="M26,148.32a3.65,3.65,0,0,0,.53.49,4,4,0,0,0,.69.43,3.73,3.73,0,0,0,1.78.42,2.35,2.35,0,0,0,1.48-.4,1.22,1.22,0,0,0,.51-1,1.06,1.06,0,0,0-.45-.92,4,4,0,0,0-1.43-.49l-.35-.06a11.82,11.82,0,0,1-1.4-.33,4.34,4.34,0,0,1-1.25-.58,3.11,3.11,0,0,1-.92-1,3,3,0,0,1-.35-1.51,3.11,3.11,0,0,1,.23-1.11,3.07,3.07,0,0,1,.75-1.07,3.88,3.88,0,0,1,1.32-.8,5.41,5.41,0,0,1,2-.31,6.18,6.18,0,0,1,2.42.45,4.66,4.66,0,0,1,1.73,1.18l-1.51,1.41a3.12,3.12,0,0,0-1.18-.8,4.07,4.07,0,0,0-1.49-.29,2.39,2.39,0,0,0-1.38.34,1,1,0,0,0-.5.87,1.1,1.1,0,0,0,.16.59,1.3,1.3,0,0,0,.45.38,3.32,3.32,0,0,0,.7.26l.9.2.18,0a12.43,12.43,0,0,1,1.34.32,4.31,4.31,0,0,1,1.21.56,2.81,2.81,0,0,1,.87,1,3,3,0,0,1,.34,1.53A3.12,3.12,0,0,1,33,149.6a3.66,3.66,0,0,1-.93,1.1,3.88,3.88,0,0,1-1.34.69,5.49,5.49,0,0,1-1.58.23,8.13,8.13,0,0,1-1.53-.14,5.82,5.82,0,0,1-1.28-.4,5.23,5.23,0,0,1-1-.58,4.84,4.84,0,0,1-.79-.68Z"/><path d="M38.09,149a1.2,1.2,0,0,0,0,.28.59.59,0,0,0,.14.23.69.69,0,0,0,.28.16,1.89,1.89,0,0,0,.46.05h.27l.29,0,.28,0a.87.87,0,0,0,.21,0l.2,1.91-.63.07-.63,0-.69,0a2.7,2.7,0,0,1-1.75-.51,2,2,0,0,1-.62-1.61V145H34.42V143.1h1.51v-2.37l2.16-.58v2.95h2.19V145H38.09Z"/><path d="M43.45,148a1.82,1.82,0,0,0,.23.69,2,2,0,0,0,.47.54,2.25,2.25,0,0,0,.65.35,2.5,2.5,0,0,0,.78.12,3.45,3.45,0,0,0,1-.18,3.39,3.39,0,0,0,1-.54l1,1.51a4.73,4.73,0,0,1-1.44.8,5.41,5.41,0,0,1-1.81.3,4.46,4.46,0,0,1-1.64-.3,3.92,3.92,0,0,1-1.34-.85,4.18,4.18,0,0,1-.9-1.37,4.56,4.56,0,0,1-.34-1.81,4.82,4.82,0,0,1,.3-1.72,4.19,4.19,0,0,1,.82-1.39,3.7,3.7,0,0,1,1.26-.91,3.78,3.78,0,0,1,1.63-.34A3.74,3.74,0,0,1,48,144.08a3.7,3.7,0,0,1,.82,1.3,4.47,4.47,0,0,1,.3,1.67v1Zm1.75-3.22a1.62,1.62,0,0,0-1.18.46,1.83,1.83,0,0,0-.56,1.13h3.38a1.59,1.59,0,0,0-.49-1.13A1.57,1.57,0,0,0,45.2,144.81Z"/><path d="M52.62,154.11H50.47v-11h2.15v.72a3.14,3.14,0,0,1,.87-.63,2.81,2.81,0,0,1,1.25-.26,3.29,3.29,0,0,1,1.51.34,3.53,3.53,0,0,1,1.16.91,4.36,4.36,0,0,1,.75,1.38,5.65,5.65,0,0,1,.26,1.73,5.3,5.3,0,0,1-.27,1.72,4.21,4.21,0,0,1-.77,1.38,3.6,3.6,0,0,1-1.18.9,3.44,3.44,0,0,1-1.51.33,3.4,3.4,0,0,1-.67-.06,3,3,0,0,1-.55-.19,2.35,2.35,0,0,1-.46-.28,3.17,3.17,0,0,1-.39-.34Zm-.06-6.05a1.59,1.59,0,0,0,.12.62,1.47,1.47,0,0,0,.89.82,2.05,2.05,0,0,0,.72.12,1.8,1.8,0,0,0,.82-.17,1.68,1.68,0,0,0,.59-.47,2,2,0,0,0,.37-.72,3.35,3.35,0,0,0,.13-.92v-.1a3.35,3.35,0,0,0-.13-.92,2.09,2.09,0,0,0-.37-.73,1.61,1.61,0,0,0-.59-.48,1.8,1.8,0,0,0-.82-.18,2.05,2.05,0,0,0-.72.12,1.63,1.63,0,0,0-.54.33,1.46,1.46,0,0,0-.35.5,1.59,1.59,0,0,0-.12.62Z"/><path d="M64.77,151.47l-3.16-11.21h2.54l2.16,8.42h.08l2.12-8.42H71l-3.17,11.21Z"/><path d="M73.23,148a1.67,1.67,0,0,0,.24.69,1.84,1.84,0,0,0,.46.54,2.39,2.39,0,0,0,.65.35,2.54,2.54,0,0,0,.78.12,3.46,3.46,0,0,0,2-.72l1,1.51a4.73,4.73,0,0,1-1.44.8,5.37,5.37,0,0,1-1.81.3,4.41,4.41,0,0,1-1.63-.3,3.87,3.87,0,0,1-1.35-.85,4.18,4.18,0,0,1-.9-1.37,4.75,4.75,0,0,1-.34-1.81,4.82,4.82,0,0,1,.3-1.72,4.19,4.19,0,0,1,.82-1.39,3.7,3.7,0,0,1,1.26-.91,3.78,3.78,0,0,1,1.63-.34,4,4,0,0,1,1.54.3,3.81,3.81,0,0,1,1.23.85,3.86,3.86,0,0,1,.83,1.3,4.68,4.68,0,0,1,.29,1.67v1ZM75,144.81a1.62,1.62,0,0,0-1.18.46,1.83,1.83,0,0,0-.56,1.13h3.38a1.55,1.55,0,0,0-.49-1.13A1.57,1.57,0,0,0,75,144.81Z"/><path d="M85,145.19h-.22a3.6,3.6,0,0,0-.88.1,1.74,1.74,0,0,0-.74.34,1.76,1.76,0,0,0-.51.67,2.71,2.71,0,0,0-.19,1.1v4.07H80.25V143.1h2.16V144a1.77,1.77,0,0,1,.34-.4,2.27,2.27,0,0,1,.49-.35,3.41,3.41,0,0,1,.64-.25,3,3,0,0,1,.75-.09H85Z"/><path d="M86.07,140.9a1.24,1.24,0,0,1,.1-.5,1.34,1.34,0,0,1,.28-.42,1.46,1.46,0,0,1,.41-.27,1.22,1.22,0,0,1,.51-.1,1.24,1.24,0,0,1,.5.1,1.18,1.18,0,0,1,.69.69,1.24,1.24,0,0,1,.1.5,1.22,1.22,0,0,1-.1.51,1.46,1.46,0,0,1-.27.41,1.34,1.34,0,0,1-.42.28,1.24,1.24,0,0,1-.5.1,1.22,1.22,0,0,1-.51-.1,1.34,1.34,0,0,1-.69-.69A1.22,1.22,0,0,1,86.07,140.9Zm2.38,10.57H86.3V143.1h2.15Z"/><path d="M93.2,143.1h1.6V145H93.2v6.5H91.05V145H89.72V143.1h1.33v-1a2.25,2.25,0,0,1,.18-.94,1.92,1.92,0,0,1,.52-.67,2.49,2.49,0,0,1,.8-.39,3.68,3.68,0,0,1,1-.13l.54,0,.5,0,.4,0,.27,0-.18,1.84-.23,0-.29,0-.29,0h-.25a1,1,0,0,0-.65.17.59.59,0,0,0-.2.45Z"/><path d="M95.81,140.9a1.44,1.44,0,0,1,.1-.5,1.34,1.34,0,0,1,.28-.42,1.62,1.62,0,0,1,.41-.27,1.25,1.25,0,0,1,.51-.1,1.21,1.21,0,0,1,.5.1A1.51,1.51,0,0,1,98,140a1.32,1.32,0,0,1,.27.42,1.25,1.25,0,0,1,.11.5,1.23,1.23,0,0,1-.11.51,1.27,1.27,0,0,1-.27.41,1.34,1.34,0,0,1-.42.28,1.21,1.21,0,0,1-.5.1,1.25,1.25,0,0,1-.51-.1,1.42,1.42,0,0,1-.41-.28,1.3,1.3,0,0,1-.28-.41A1.4,1.4,0,0,1,95.81,140.9Zm2.39,10.57H96V143.1H98.2Z"/><path d="M101.84,147.32a3.24,3.24,0,0,0,.11.82,2.63,2.63,0,0,0,.34.74,1.68,1.68,0,0,0,1.43.74,2.08,2.08,0,0,0,.58-.08,1.73,1.73,0,0,0,.47-.24,1.8,1.8,0,0,0,.37-.36,2.56,2.56,0,0,0,.27-.45l1.89,1a3.3,3.3,0,0,1-.55.89,3.91,3.91,0,0,1-.83.68,4.21,4.21,0,0,1-1,.43,4.72,4.72,0,0,1-1.21.15,3.91,3.91,0,0,1-1.62-.33,3.69,3.69,0,0,1-1.28-.91,4.17,4.17,0,0,1-.85-1.37,5.08,5.08,0,0,1,0-3.44,4.26,4.26,0,0,1,.85-1.39,3.69,3.69,0,0,1,1.28-.91,3.76,3.76,0,0,1,1.62-.34,4.32,4.32,0,0,1,1.21.16,3.86,3.86,0,0,1,1,.43,3.67,3.67,0,0,1,.83.69,3,3,0,0,1,.55.89l-1.89,1a2.16,2.16,0,0,0-.27-.44,1.8,1.8,0,0,0-.37-.36,1.51,1.51,0,0,0-.47-.25,1.76,1.76,0,0,0-.58-.09,1.65,1.65,0,0,0-.85.21,1.77,1.77,0,0,0-.58.54,2.57,2.57,0,0,0-.34.75,3.3,3.3,0,0,0-.11.82Z"/><path d="M113.29,150.68a3.39,3.39,0,0,1-.33.31,2,2,0,0,1-.45.31,2.88,2.88,0,0,1-.61.23,3.24,3.24,0,0,1-.79.09,3.05,3.05,0,0,1-1.15-.2,2.92,2.92,0,0,1-.93-.56,2.66,2.66,0,0,1-.62-.83,2.22,2.22,0,0,1-.23-1,2.26,2.26,0,0,1,.62-1.64,3,3,0,0,1,1.73-.81l2.41-.35V146a1.18,1.18,0,0,0-.35-.89,1.57,1.57,0,0,0-1.11-.33,2.89,2.89,0,0,0-.65.08,5.79,5.79,0,0,0-.63.17,4.08,4.08,0,0,0-.56.21l-.45.22-.85-1.65a7.67,7.67,0,0,1,1.6-.66,6.58,6.58,0,0,1,1.83-.26,5.16,5.16,0,0,1,1.16.13,2.82,2.82,0,0,1,1.07.44,2.38,2.38,0,0,1,.79.87,2.88,2.88,0,0,1,.3,1.4v3.44a.7.7,0,0,0,.2.54,1.6,1.6,0,0,0,.52.32l-1,1.55a1.87,1.87,0,0,1-1.55-.94Zm-2-2.61a1.21,1.21,0,0,0-.64.27.76.76,0,0,0-.24.59.94.94,0,0,0,.29.7,1.23,1.23,0,0,0,.88.29,1.3,1.3,0,0,0,1-.35,1.26,1.26,0,0,0,.36-.93v-.85Z"/><path d="M119.66,149a.82.82,0,0,0,0,.28.48.48,0,0,0,.13.23.69.69,0,0,0,.28.16,1.89,1.89,0,0,0,.46.05h.27l.29,0,.28,0a.87.87,0,0,0,.21,0l.2,1.91-.63.07-.63,0-.69,0a2.7,2.7,0,0,1-1.75-.51,2,2,0,0,1-.62-1.61V145H116V143.1h1.51v-2.37l2.16-.58v2.95h2.19V145h-2.19Z"/><path d="M123,140.9a1.25,1.25,0,0,1,.11-.5,1.32,1.32,0,0,1,.27-.42,1.62,1.62,0,0,1,.41-.27,1.35,1.35,0,0,1,1,0,1.62,1.62,0,0,1,.41.27,1.34,1.34,0,0,1,.28.42,1.44,1.44,0,0,1,.1.5,1.4,1.4,0,0,1-.1.51,1.3,1.3,0,0,1-.28.41,1.42,1.42,0,0,1-.41.28,1.35,1.35,0,0,1-1,0,1.42,1.42,0,0,1-.41-.28,1.27,1.27,0,0,1-.27-.41A1.23,1.23,0,0,1,123,140.9Zm2.39,10.57h-2.16V143.1h2.16Z"/><path d="M130.91,142.93a4,4,0,0,1,1.68.34,3.77,3.77,0,0,1,1.3.91,4.05,4.05,0,0,1,.83,1.39,5.08,5.08,0,0,1,0,3.44,4.15,4.15,0,0,1-.84,1.37,3.82,3.82,0,0,1-1.29.91,4.47,4.47,0,0,1-3.37,0,3.77,3.77,0,0,1-1.3-.91,4,4,0,0,1-.83-1.37,4.82,4.82,0,0,1-.3-1.72,5,5,0,0,1,.29-1.72,4.22,4.22,0,0,1,.83-1.39,3.86,3.86,0,0,1,1.3-.91A4.1,4.1,0,0,1,130.91,142.93Zm0,6.69a1.89,1.89,0,0,0,.81-.17,1.56,1.56,0,0,0,.6-.48,2.18,2.18,0,0,0,.37-.73,3.38,3.38,0,0,0,.12-.93v-.06a3.43,3.43,0,0,0-.12-.93,2.28,2.28,0,0,0-.37-.73,1.56,1.56,0,0,0-.6-.48,1.76,1.76,0,0,0-.81-.18,1.8,1.8,0,0,0-.82.18,1.56,1.56,0,0,0-.6.48,2.28,2.28,0,0,0-.37.73,3.43,3.43,0,0,0-.12.93v.06a3.38,3.38,0,0,0,.12.93,2.18,2.18,0,0,0,.37.73,1.56,1.56,0,0,0,.6.48A1.94,1.94,0,0,0,130.91,149.62Z"/><path d="M136.45,143.1h2.15v.72a3.28,3.28,0,0,1,.39-.34,3.07,3.07,0,0,1,.47-.28A2.82,2.82,0,0,1,140,143a3,3,0,0,1,.69-.08,3.12,3.12,0,0,1,1.22.23,2.56,2.56,0,0,1,.91.61,2.69,2.69,0,0,1,.57.91,3.25,3.25,0,0,1,.19,1.14v5.65h-2.15V146.6a2.75,2.75,0,0,0-.1-.76,1.42,1.42,0,0,0-.28-.5,1.25,1.25,0,0,0-.41-.28,1.5,1.5,0,0,0-.52-.09,1.59,1.59,0,0,0-.62.12,1.33,1.33,0,0,0-.49.36,1.6,1.6,0,0,0-.33.59,2.68,2.68,0,0,0-.12.85v4.58h-2.15Z"/><path d="M150.09,147.32a3.24,3.24,0,0,0,.11.82,2.63,2.63,0,0,0,.34.74,1.68,1.68,0,0,0,1.43.74,2.08,2.08,0,0,0,.58-.08,1.73,1.73,0,0,0,.47-.24,1.8,1.8,0,0,0,.37-.36,2.56,2.56,0,0,0,.27-.45l1.89,1a3.3,3.3,0,0,1-.55.89,3.91,3.91,0,0,1-.83.68,4.21,4.21,0,0,1-1,.43,4.72,4.72,0,0,1-1.21.15,3.91,3.91,0,0,1-1.62-.33,3.78,3.78,0,0,1-1.28-.91,4.34,4.34,0,0,1-.85-1.37,5.08,5.08,0,0,1,0-3.44,4.44,4.44,0,0,1,.85-1.39,4,4,0,0,1,2.9-1.25,4.32,4.32,0,0,1,1.21.16,3.86,3.86,0,0,1,1,.43,3.67,3.67,0,0,1,.83.69,3,3,0,0,1,.55.89l-1.89,1a2.16,2.16,0,0,0-.27-.44,1.8,1.8,0,0,0-.37-.36,1.51,1.51,0,0,0-.47-.25,1.76,1.76,0,0,0-.58-.09,1.65,1.65,0,0,0-.85.21,1.77,1.77,0,0,0-.58.54,2.57,2.57,0,0,0-.34.75,3.3,3.3,0,0,0-.11.82Z"/><path d="M156.88,140.26H159v3.56a2.64,2.64,0,0,1,.39-.34,3.07,3.07,0,0,1,.47-.28,2.93,2.93,0,0,1,.57-.19,3.06,3.06,0,0,1,.7-.08,3.16,3.16,0,0,1,1.22.23,2.65,2.65,0,0,1,.91.61,2.69,2.69,0,0,1,.57.91,3.25,3.25,0,0,1,.19,1.14v5.65h-2.15V146.6a2.39,2.39,0,0,0-.11-.76,1.4,1.4,0,0,0-.27-.5,1.19,1.19,0,0,0-.42-.28,1.46,1.46,0,0,0-.52-.09,1.58,1.58,0,0,0-.61.12,1.36,1.36,0,0,0-.5.36,1.45,1.45,0,0,0-.32.59,2.68,2.68,0,0,0-.12.85v4.58h-2.16Z"/><path d="M167.66,148a1.91,1.91,0,0,0,.71,1.23,2.25,2.25,0,0,0,.65.35,2.45,2.45,0,0,0,.78.12,3.34,3.34,0,0,0,1-.18,3.57,3.57,0,0,0,1-.54l1,1.51a4.73,4.73,0,0,1-1.44.8,5.41,5.41,0,0,1-1.81.3,4.46,4.46,0,0,1-1.64-.3,3.83,3.83,0,0,1-1.34-.85,4.37,4.37,0,0,1-.91-1.37,4.75,4.75,0,0,1-.33-1.81,5,5,0,0,1,.29-1.72,4.22,4.22,0,0,1,.83-1.39,3.7,3.7,0,0,1,1.26-.91,3.78,3.78,0,0,1,1.63-.34,3.74,3.74,0,0,1,2.77,1.15,3.7,3.7,0,0,1,.82,1.3,4.47,4.47,0,0,1,.3,1.67v1Zm1.75-3.22a1.61,1.61,0,0,0-1.17.46,1.83,1.83,0,0,0-.56,1.13h3.37a1.61,1.61,0,0,0-1.64-1.59Z"/><path d="M176.48,147.32a2.85,2.85,0,0,0,.11.82,2.36,2.36,0,0,0,.33.74,1.73,1.73,0,0,0,.58.53,1.65,1.65,0,0,0,.85.21,2,2,0,0,0,.58-.08,1.73,1.73,0,0,0,.47-.24,1.8,1.8,0,0,0,.37-.36,2.6,2.6,0,0,0,.28-.45l1.89,1a3.33,3.33,0,0,1-.56.89,3.68,3.68,0,0,1-.83.68,4.14,4.14,0,0,1-1,.43,4.8,4.8,0,0,1-1.22.15,3.94,3.94,0,0,1-1.62-.33,3.78,3.78,0,0,1-1.28-.91,4.34,4.34,0,0,1-.85-1.37,5.08,5.08,0,0,1,0-3.44,4.44,4.44,0,0,1,.85-1.39,4,4,0,0,1,2.9-1.25,4.39,4.39,0,0,1,1.22.16,3.79,3.79,0,0,1,1,.43,3.47,3.47,0,0,1,.83.69,3,3,0,0,1,.56.89l-1.89,1a2.2,2.2,0,0,0-.28-.44,1.8,1.8,0,0,0-.37-.36,1.51,1.51,0,0,0-.47-.25,1.72,1.72,0,0,0-.58-.09,1.65,1.65,0,0,0-.85.21,1.87,1.87,0,0,0-.58.54,2.32,2.32,0,0,0-.33.75,2.89,2.89,0,0,0-.11.82Z"/><path d="M185.42,146.38l2.79-3.28h2.69l-3,3.42,3.1,4.95h-2.59l-2.09-3.41-.88,1v2.45h-2.15V140.26h2.15Z"/><rect class="cls-1" x="2.5" y="187.5" width="199" height="39"/><path d="M201,188v38H3V188H201m1-1H2v40H202V187Z"/><path d="M10.82,205.86a6.89,6.89,0,0,1,.36-2.25,5.51,5.51,0,0,1,1.05-1.83,4.83,4.83,0,0,1,1.65-1.23,5.22,5.22,0,0,1,2.17-.44,5.64,5.64,0,0,1,1.63.22A5,5,0,0,1,19,201a4.45,4.45,0,0,1,1,1,5.14,5.14,0,0,1,.68,1.32l-2.18.72a2.82,2.82,0,0,0-.3-.64A2.72,2.72,0,0,0,17,202.32a2.49,2.49,0,0,0-.93-.17,2.58,2.58,0,0,0-1.32.32,2.79,2.79,0,0,0-.91.83,4.07,4.07,0,0,0-.52,1.18,5.54,5.54,0,0,0-.16,1.35v.06a5.56,5.56,0,0,0,.16,1.36,4.07,4.07,0,0,0,.52,1.18,2.79,2.79,0,0,0,.91.83,2.58,2.58,0,0,0,1.32.31,2.3,2.3,0,0,0,.93-.17,2.41,2.41,0,0,0,.73-.44,2.67,2.67,0,0,0,.52-.6,2.82,2.82,0,0,0,.3-.64l2.18.72a5.08,5.08,0,0,1-.68,1.31,4.49,4.49,0,0,1-1,1,4.74,4.74,0,0,1-1.34.64,5.64,5.64,0,0,1-1.63.22,5.22,5.22,0,0,1-2.17-.44A4.83,4.83,0,0,1,12.23,210a5.51,5.51,0,0,1-1.05-1.83A6.91,6.91,0,0,1,10.82,205.86Z"/><path d="M25.8,202.93a4,4,0,0,1,1.68.34,3.77,3.77,0,0,1,1.3.91,4.05,4.05,0,0,1,.83,1.39,5.08,5.08,0,0,1,0,3.44,4.15,4.15,0,0,1-.84,1.37,4,4,0,0,1-1.29.91,4.47,4.47,0,0,1-3.37,0,3.91,3.91,0,0,1-1.3-.91A4,4,0,0,1,22,209a4.82,4.82,0,0,1-.3-1.72,5,5,0,0,1,.29-1.72,4.39,4.39,0,0,1,.83-1.39,3.81,3.81,0,0,1,1.31-.91A4,4,0,0,1,25.8,202.93Zm0,6.69a1.89,1.89,0,0,0,.81-.17,1.66,1.66,0,0,0,.6-.48,2.18,2.18,0,0,0,.37-.73,3.38,3.38,0,0,0,.12-.93v-.06a3.43,3.43,0,0,0-.12-.93,2.28,2.28,0,0,0-.37-.73,1.56,1.56,0,0,0-.6-.48,1.76,1.76,0,0,0-.81-.18,1.8,1.8,0,0,0-.82.18,1.56,1.56,0,0,0-.6.48,2.08,2.08,0,0,0-.36.73,3.08,3.08,0,0,0-.13.93v.06a3,3,0,0,0,.13.93,2,2,0,0,0,.36.73,1.66,1.66,0,0,0,.6.48A1.94,1.94,0,0,0,25.8,209.62Z"/><path d="M31.34,203.1h2.15v.72a4.32,4.32,0,0,1,.39-.34,3.07,3.07,0,0,1,.47-.28,2.82,2.82,0,0,1,.58-.19,3,3,0,0,1,.69-.08,3.12,3.12,0,0,1,1.22.23,2.43,2.43,0,0,1,.91.61,2.6,2.6,0,0,1,.57.91,3.25,3.25,0,0,1,.2,1.14v5.64H36.36V206.6a2.41,2.41,0,0,0-.1-.76,1.42,1.42,0,0,0-.28-.5,1.15,1.15,0,0,0-.41-.28,1.5,1.5,0,0,0-.52-.09,1.59,1.59,0,0,0-.62.12,1.33,1.33,0,0,0-.49.36,1.6,1.6,0,0,0-.33.59,2.68,2.68,0,0,0-.12.85v4.57H31.34Z"/><path d="M43.2,203.1h1.6V205H43.2v6.49H41.05V205H39.72V203.1h1.33v-1a2.33,2.33,0,0,1,.18-.95,2,2,0,0,1,.52-.66,2.49,2.49,0,0,1,.8-.39,3.68,3.68,0,0,1,1-.13l.54,0,.5,0,.4,0,.27,0-.18,1.83-.23,0-.29,0-.29,0h-.25a1,1,0,0,0-.65.17.59.59,0,0,0-.2.45Z"/><path d="M45.81,200.9a1.44,1.44,0,0,1,.1-.5,1.34,1.34,0,0,1,.28-.42,1.62,1.62,0,0,1,.41-.27,1.25,1.25,0,0,1,.51-.1,1.21,1.21,0,0,1,.5.1A1.51,1.51,0,0,1,48,200a1.32,1.32,0,0,1,.27.42,1.21,1.21,0,0,1,0,1,1.27,1.27,0,0,1-.27.41,1.34,1.34,0,0,1-.42.28,1.21,1.21,0,0,1-.5.1,1.25,1.25,0,0,1-.51-.1,1.42,1.42,0,0,1-.41-.28,1.3,1.3,0,0,1-.28-.41A1.45,1.45,0,0,1,45.81,200.9Zm2.39,10.56H46V203.1H48.2Z"/><path d="M54.76,205.19h-.23a3.6,3.6,0,0,0-.88.1,1.91,1.91,0,0,0-.74.33,1.79,1.79,0,0,0-.51.68,2.71,2.71,0,0,0-.19,1.1v4.06H50.05V203.1h2.16V204a2.07,2.07,0,0,1,.34-.4,2.62,2.62,0,0,1,.5-.35,3.31,3.31,0,0,1,.63-.25,3,3,0,0,1,.76-.09h.32Z"/><path d="M63.15,211.46H61V206.6a2.41,2.41,0,0,0-.1-.76,1.26,1.26,0,0,0-.27-.5,1,1,0,0,0-.39-.27,1.59,1.59,0,0,0-.5-.08,1.62,1.62,0,0,0-.58.11,1.29,1.29,0,0,0-.47.34,1.88,1.88,0,0,0-.31.6,3.1,3.1,0,0,0-.11.86v4.56H56.1V203.1h2.16v.73a2.59,2.59,0,0,1,1-.68,3.3,3.3,0,0,1,1.18-.22,2.82,2.82,0,0,1,1.22.27,2.29,2.29,0,0,1,.94.87,2.52,2.52,0,0,1,.5-.53,2.91,2.91,0,0,1,.62-.35,3,3,0,0,1,.68-.19,4.4,4.4,0,0,1,.73-.07,3.33,3.33,0,0,1,1.26.23,3.05,3.05,0,0,1,.93.63,2.77,2.77,0,0,1,.59.89,3,3,0,0,1,.2,1.07v5.71H65.89V206.6a2.41,2.41,0,0,0-.1-.76,1.26,1.26,0,0,0-.27-.5,1,1,0,0,0-.4-.27,1.64,1.64,0,0,0-.5-.08,1.58,1.58,0,0,0-.58.11,1.18,1.18,0,0,0-.46.34,1.71,1.71,0,0,0-.32.6,3.1,3.1,0,0,0-.11.86Z"/><path d="M72.52,200.9a1.24,1.24,0,0,1,.1-.5,1.32,1.32,0,0,1,.27-.42,1.62,1.62,0,0,1,.41-.27,1.35,1.35,0,0,1,1,0,1.46,1.46,0,0,1,.41.27,1.34,1.34,0,0,1,.28.42,1.24,1.24,0,0,1,.1.5,1.25,1.25,0,0,1-.1.51,1.34,1.34,0,0,1-.69.69,1.35,1.35,0,0,1-1,0,1.42,1.42,0,0,1-.41-.28,1.27,1.27,0,0,1-.27-.41A1.25,1.25,0,0,1,72.52,200.9Zm2.38,10.56H72.74V203.1H74.9Z"/><path d="M82.13,211.46v-.71a2.49,2.49,0,0,1-.38.34,2.09,2.09,0,0,1-.46.28,2.37,2.37,0,0,1-.55.18,2.81,2.81,0,0,1-.67.07,3.49,3.49,0,0,1-1.52-.33,3.56,3.56,0,0,1-1.17-.9,4.21,4.21,0,0,1-.77-1.38,5.3,5.3,0,0,1-.27-1.72,5.36,5.36,0,0,1,.27-1.73,4.36,4.36,0,0,1,.75-1.38,3.33,3.33,0,0,1,1.16-.91,3.24,3.24,0,0,1,1.5-.34,2.78,2.78,0,0,1,1.25.26,3,3,0,0,1,.86.63v-3.56h2.16v11.2Zm.07-5a1.6,1.6,0,0,0-.47-1.12,1.63,1.63,0,0,0-.54-.33,2,2,0,0,0-.72-.12,1.76,1.76,0,0,0-.81.18,1.56,1.56,0,0,0-.6.48,2.08,2.08,0,0,0-.36.73,3,3,0,0,0-.13.92v.1a3,3,0,0,0,.13.92,2,2,0,0,0,.36.72,1.63,1.63,0,0,0,.6.47,1.75,1.75,0,0,0,.81.17,2,2,0,0,0,.72-.12,1.46,1.46,0,0,0,.54-.32,1.6,1.6,0,0,0,.47-1.12Z"/><path d="M88,208a2,2,0,0,0,.24.69,1.87,1.87,0,0,0,.47.54,2.25,2.25,0,0,0,.65.35,2.45,2.45,0,0,0,.78.12,3.34,3.34,0,0,0,1-.18,3.57,3.57,0,0,0,1-.54l1,1.51a4.73,4.73,0,0,1-1.44.8,5.41,5.41,0,0,1-1.81.3,4.46,4.46,0,0,1-1.64-.3,3.72,3.72,0,0,1-1.34-.86A4.06,4.06,0,0,1,86,209.1a4.75,4.75,0,0,1-.33-1.81,5,5,0,0,1,.29-1.72,4.22,4.22,0,0,1,.83-1.39,3.7,3.7,0,0,1,1.26-.91,3.76,3.76,0,0,1,1.62-.34,4,4,0,0,1,1.55.3,3.92,3.92,0,0,1,1.23.85,3.84,3.84,0,0,1,.82,1.3,4.47,4.47,0,0,1,.3,1.67v1Zm1.75-3.22a1.61,1.61,0,0,0-1.17.46,1.83,1.83,0,0,0-.56,1.12h3.37a1.61,1.61,0,0,0-1.64-1.58Z"/><path d="M95,203.1h2.15v.72a4.32,4.32,0,0,1,.39-.34,3.07,3.07,0,0,1,.47-.28,3,3,0,0,1,.58-.19,3,3,0,0,1,.7-.08,3.11,3.11,0,0,1,1.21.23,2.43,2.43,0,0,1,.91.61,2.6,2.6,0,0,1,.57.91,3.25,3.25,0,0,1,.2,1.14v5.64H100V206.6a2.41,2.41,0,0,0-.1-.76,1.42,1.42,0,0,0-.28-.5,1.15,1.15,0,0,0-.41-.28,1.46,1.46,0,0,0-.52-.09,1.59,1.59,0,0,0-.62.12,1.33,1.33,0,0,0-.49.36,1.6,1.6,0,0,0-.33.59,2.68,2.68,0,0,0-.12.85v4.57H95Z"/><path d="M107,209a.82.82,0,0,0,0,.28.48.48,0,0,0,.13.23.69.69,0,0,0,.28.16,2,2,0,0,0,.46.05h.27l.3,0,.27,0,.22,0,.19,1.91-.63.07-.62,0-.7,0a2.65,2.65,0,0,1-1.74-.51,1.93,1.93,0,0,1-.63-1.61V205h-1.5V203.1h1.5v-2.37l2.16-.58v2.95h2.19V205H107Z"/><path d="M110.37,200.9a1.24,1.24,0,0,1,.1-.5,1.34,1.34,0,0,1,.28-.42,1.33,1.33,0,0,1,.41-.27,1.18,1.18,0,0,1,.5-.1,1.25,1.25,0,0,1,.51.1,1.46,1.46,0,0,1,.41.27,1.34,1.34,0,0,1,.28.42,1.24,1.24,0,0,1,.1.5,1.25,1.25,0,0,1-.1.51,1.34,1.34,0,0,1-.69.69,1.25,1.25,0,0,1-.51.1,1.18,1.18,0,0,1-.5-.1,1.2,1.2,0,0,1-.41-.28,1.3,1.3,0,0,1-.28-.41A1.25,1.25,0,0,1,110.37,200.9Zm2.38,10.56h-2.16V203.1h2.16Z"/><path d="M117.7,209a1.2,1.2,0,0,0,0,.28.59.59,0,0,0,.14.23.69.69,0,0,0,.28.16,1.89,1.89,0,0,0,.46.05h.27l.29,0,.28,0,.21,0,.2,1.91-.63.07-.63,0-.69,0a2.7,2.7,0,0,1-1.75-.51,2,2,0,0,1-.62-1.61V205H114V203.1h1.51v-2.37l2.16-.58v2.95h2.19V205H117.7Z"/><path d="M122.4,212.44a.9.9,0,0,0,.54-.13.87.87,0,0,0,.28-.43l.08-.26-2.9-8.52h2.4l1.66,5.77,1.38-5.77h2.37l-2.82,9.4a2.44,2.44,0,0,1-.39.81,2.2,2.2,0,0,1-.59.55,2.78,2.78,0,0,1-.77.32,4.11,4.11,0,0,1-.89.1l-.45,0-.52,0-.53-.07a4.61,4.61,0,0,1-.48-.09l.4-1.77.39.08.4,0Z"/><rect class="cls-1" x="2.5" y="247.5" width="199" height="39"/><path d="M201,248v38H3V248H201m1-1H2v40H202V247Z"/><path d="M13.16,265.89a5.35,5.35,0,0,0,.18,1.39,3.7,3.7,0,0,0,.54,1.17,2.67,2.67,0,0,0,2.3,1.12,2.92,2.92,0,0,0,1.26-.24,2.32,2.32,0,0,0,.81-.6,2.24,2.24,0,0,0,.42-.79,2.85,2.85,0,0,0,.12-.78v-.11H15.92v-1.73H21v6.14H19v-1.31a2.72,2.72,0,0,1-.53.6,3.14,3.14,0,0,1-.7.46,3.71,3.71,0,0,1-.85.3,4.48,4.48,0,0,1-1,.11,5.17,5.17,0,0,1-2.18-.44A4.67,4.67,0,0,1,12.15,270a5.56,5.56,0,0,1-1-1.83,7.18,7.18,0,0,1-.34-2.26,6.64,6.64,0,0,1,.38-2.25,5.41,5.41,0,0,1,1.08-1.83A5,5,0,0,1,14,260.55a5.46,5.46,0,0,1,2.22-.44,6.18,6.18,0,0,1,1.51.18,5.43,5.43,0,0,1,1.31.52,4.65,4.65,0,0,1,1,.82,4.06,4.06,0,0,1,.73,1.07l-2,1.12a3.79,3.79,0,0,0-.42-.67,2.56,2.56,0,0,0-.56-.53,2.41,2.41,0,0,0-.72-.35,2.94,2.94,0,0,0-.91-.13,2.76,2.76,0,0,0-1.36.31,2.72,2.72,0,0,0-.94.81,3.65,3.65,0,0,0-.54,1.18,5.22,5.22,0,0,0-.18,1.38Z"/><path d="M27.45,265.19h-.23a3.6,3.6,0,0,0-.88.1,1.85,1.85,0,0,0-.74.33,1.79,1.79,0,0,0-.51.68,2.71,2.71,0,0,0-.19,1.1v4.06H22.74V263.1H24.9V264a2.07,2.07,0,0,1,.34-.4,2.54,2.54,0,0,1,.49-.35,3.41,3.41,0,0,1,.64-.25,3,3,0,0,1,.75-.09h.33Z"/><path d="M33.45,270.68a3.39,3.39,0,0,1-.33.31,2.55,2.55,0,0,1-.45.31,3.68,3.68,0,0,1-.62.23,3.1,3.1,0,0,1-.78.09,3.32,3.32,0,0,1-1.16-.2,2.77,2.77,0,0,1-.92-.56,2.54,2.54,0,0,1-.63-.83,2.35,2.35,0,0,1-.22-1,2.22,2.22,0,0,1,.62-1.64,2.93,2.93,0,0,1,1.73-.81l2.4-.35V266a1.18,1.18,0,0,0-.34-.89,1.58,1.58,0,0,0-1.12-.33,3,3,0,0,0-.65.08,6.29,6.29,0,0,0-.62.17,3.64,3.64,0,0,0-.56.21l-.46.22-.84-1.65a7.45,7.45,0,0,1,1.6-.66,6.46,6.46,0,0,1,1.82-.26,5.81,5.81,0,0,1,1.17.12,3.08,3.08,0,0,1,1.07.45,2.47,2.47,0,0,1,.79.87,2.88,2.88,0,0,1,.3,1.4v3.44a.7.7,0,0,0,.19.54,1.65,1.65,0,0,0,.53.32l-1,1.55a2,2,0,0,1-1-.31A1.88,1.88,0,0,1,33.45,270.68Zm-2-2.61a1.28,1.28,0,0,0-.65.27.76.76,0,0,0-.24.59.92.92,0,0,0,.3.69,1.19,1.19,0,0,0,.88.3,1.32,1.32,0,0,0,1-.35,1.25,1.25,0,0,0,.35-.93v-.85Z"/><path d="M37.05,263.1H39.2v.72a4.32,4.32,0,0,1,.39-.34,3.07,3.07,0,0,1,.47-.28,3,3,0,0,1,.58-.19,3,3,0,0,1,.7-.08,3.07,3.07,0,0,1,1.21.23,2.43,2.43,0,0,1,.91.61,2.6,2.6,0,0,1,.57.91,3.25,3.25,0,0,1,.2,1.14v5.64H42.07V266.6a2.41,2.41,0,0,0-.1-.76,1.42,1.42,0,0,0-.28-.5,1.15,1.15,0,0,0-.41-.28,1.46,1.46,0,0,0-.52-.09,1.59,1.59,0,0,0-.62.12,1.33,1.33,0,0,0-.49.36,1.6,1.6,0,0,0-.33.59,2.68,2.68,0,0,0-.12.85v4.57H37.05Z"/><path d="M49.11,269a.82.82,0,0,0,0,.28.43.43,0,0,0,.14.23.59.59,0,0,0,.27.16,2,2,0,0,0,.46.05h.27l.3,0,.27,0,.22,0,.19,1.91-.63.07-.62.05-.7,0a2.67,2.67,0,0,1-1.74-.51A1.93,1.93,0,0,1,47,269.5V265h-1.5V263.1H47v-2.37l2.16-.58v3H51.3V265H49.11Z"/><path d="M60.2,270.68a3.2,3.2,0,0,1-.32.31,2.55,2.55,0,0,1-.45.31,3.68,3.68,0,0,1-.62.23,3.18,3.18,0,0,1-.79.09,3.31,3.31,0,0,1-1.15-.2,2.77,2.77,0,0,1-.92-.56,2.54,2.54,0,0,1-.63-.83,2.36,2.36,0,0,1-.23-1,2.22,2.22,0,0,1,.63-1.64,2.93,2.93,0,0,1,1.73-.81l2.4-.35V266a1.18,1.18,0,0,0-.34-.89,1.58,1.58,0,0,0-1.12-.33,3,3,0,0,0-.65.08,5.79,5.79,0,0,0-.63.17,4.63,4.63,0,0,0-.56.21l-.45.22-.84-1.65a7.45,7.45,0,0,1,1.6-.66,6.46,6.46,0,0,1,1.82-.26,6,6,0,0,1,1.17.12,3.08,3.08,0,0,1,1.07.45,2.36,2.36,0,0,1,.78.87,2.77,2.77,0,0,1,.31,1.4v3.44a.7.7,0,0,0,.19.54,1.65,1.65,0,0,0,.53.32l-1,1.55a1.94,1.94,0,0,1-1-.31A2,2,0,0,1,60.2,270.68Zm-2-2.61a1.25,1.25,0,0,0-.65.27.76.76,0,0,0-.24.59.92.92,0,0,0,.3.69,1.19,1.19,0,0,0,.88.3,1.33,1.33,0,0,0,1-.35,1.29,1.29,0,0,0,.35-.93v-.85Z"/><path d="M70.92,271.46H68.77v-.71l-.39.33a2.78,2.78,0,0,1-.47.28,3.29,3.29,0,0,1-.58.19,3,3,0,0,1-.7.07,3.16,3.16,0,0,1-1.22-.22,2.65,2.65,0,0,1-.91-.61,2.73,2.73,0,0,1-.56-.91,3.24,3.24,0,0,1-.2-1.13V263.1H65.9V268a2.35,2.35,0,0,0,.1.75,1.24,1.24,0,0,0,.27.51,1.07,1.07,0,0,0,.42.28,1.46,1.46,0,0,0,.52.09,1.54,1.54,0,0,0,.61-.12,1.34,1.34,0,0,0,.5-.35,1.73,1.73,0,0,0,.33-.6,2.66,2.66,0,0,0,.12-.84V263.1h2.15Z"/><path d="M75.87,269a.82.82,0,0,0,0,.28.48.48,0,0,0,.13.23.69.69,0,0,0,.28.16,1.89,1.89,0,0,0,.46.05h.27l.29,0,.28,0,.22,0,.19,1.91-.63.07-.63.05-.69,0a2.65,2.65,0,0,1-1.74-.51,1.93,1.93,0,0,1-.63-1.61V265H72.2V263.1h1.51v-2.37l2.16-.58v3h2.19V265H75.87Z"/><path d="M79.42,260.26h2.16v3.56a3.16,3.16,0,0,1,.38-.34,3.77,3.77,0,0,1,.48-.28A2.93,2.93,0,0,1,83,263a3.06,3.06,0,0,1,.7-.08,3.16,3.16,0,0,1,1.22.23,2.52,2.52,0,0,1,.91.61,2.6,2.6,0,0,1,.57.91,3.25,3.25,0,0,1,.19,1.14v5.64H84.45V266.6a2.39,2.39,0,0,0-.11-.76,1.4,1.4,0,0,0-.27-.5,1.19,1.19,0,0,0-.42-.28,1.46,1.46,0,0,0-.52-.09,1.54,1.54,0,0,0-.61.12,1.36,1.36,0,0,0-.5.36,1.45,1.45,0,0,0-.32.59,2.68,2.68,0,0,0-.12.85v4.57H79.42Z"/><path d="M92.08,262.93a4.05,4.05,0,0,1,1.69.34,3.82,3.82,0,0,1,1.29.91,4.05,4.05,0,0,1,.83,1.39,5.08,5.08,0,0,1,0,3.44,4.15,4.15,0,0,1-.84,1.37,3.86,3.86,0,0,1-1.29.91,4.47,4.47,0,0,1-3.37,0,4,4,0,0,1-1.3-.91,4.12,4.12,0,0,1-.83-1.37,4.82,4.82,0,0,1-.3-1.72,5,5,0,0,1,.29-1.72,4.24,4.24,0,0,1,.84-1.39,3.77,3.77,0,0,1,1.3-.91A4,4,0,0,1,92.08,262.93Zm0,6.69a1.86,1.86,0,0,0,.81-.17,1.66,1.66,0,0,0,.6-.48,2,2,0,0,0,.37-.73,3.38,3.38,0,0,0,.12-.93v-.06a3.43,3.43,0,0,0-.12-.93,2.09,2.09,0,0,0-.37-.73,1.56,1.56,0,0,0-.6-.48,1.73,1.73,0,0,0-.81-.18,1.8,1.8,0,0,0-.82.18,1.64,1.64,0,0,0-.6.48,2.08,2.08,0,0,0-.36.73,3.08,3.08,0,0,0-.13.93v.06a3,3,0,0,0,.13.93,2,2,0,0,0,.36.73,1.75,1.75,0,0,0,.6.48A1.94,1.94,0,0,0,92.08,269.62Z"/><path d="M102.32,265.19h-.23a3.65,3.65,0,0,0-.88.1,1.87,1.87,0,0,0-.73.33,1.72,1.72,0,0,0-.52.68,2.9,2.9,0,0,0-.19,1.1v4.06H97.62V263.1h2.15V264a2.14,2.14,0,0,1,.35-.4,2.27,2.27,0,0,1,.49-.35,3.6,3.6,0,0,1,.63-.25A3.1,3.1,0,0,1,102,263h.32Z"/><path d="M103.44,260.9a1.24,1.24,0,0,1,.1-.5,1.34,1.34,0,0,1,.28-.42,1.33,1.33,0,0,1,.41-.27,1.18,1.18,0,0,1,.5-.1,1.25,1.25,0,0,1,.51.1,1.33,1.33,0,0,1,.41.27,1.34,1.34,0,0,1,.28.42,1.24,1.24,0,0,1,.1.5,1.25,1.25,0,0,1-.1.51,1.3,1.3,0,0,1-.28.41,1.2,1.2,0,0,1-.41.28,1.25,1.25,0,0,1-.51.1,1.18,1.18,0,0,1-.5-.1,1.2,1.2,0,0,1-.41-.28,1.3,1.3,0,0,1-.28-.41A1.25,1.25,0,0,1,103.44,260.9Zm2.38,10.56h-2.16V263.1h2.16Z"/><path d="M110.77,269a1.2,1.2,0,0,0,0,.28.59.59,0,0,0,.14.23.69.69,0,0,0,.28.16,1.89,1.89,0,0,0,.46.05H112l.29,0,.28,0,.21,0,.2,1.91-.63.07-.63.05-.69,0a2.7,2.7,0,0,1-1.75-.51,2,2,0,0,1-.62-1.61V265H107.1V263.1h1.51v-2.37l2.16-.58v3H113V265h-2.19Z"/><path d="M115.47,272.44a.9.9,0,0,0,.54-.13.87.87,0,0,0,.28-.43l.08-.26-2.9-8.52h2.4l1.66,5.77,1.38-5.77h2.37l-2.82,9.4a2.44,2.44,0,0,1-.39.81,2.2,2.2,0,0,1-.59.55,2.78,2.78,0,0,1-.77.32,4.11,4.11,0,0,1-.89.1l-.45,0-.52,0-.53-.07a4.61,4.61,0,0,1-.48-.09l.4-1.77.39.08.4.05Z"/><line class="cls-2" x1="101.5" y1="47" x2="101.5" y2="67"/><line class="cls-2" x1="101.5" y1="107" x2="101.5" y2="127"/><line class="cls-2" x1="101.5" y1="167" x2="101.5" y2="187"/><line class="cls-2" x1="101.5" y1="227" x2="101.5" y2="247"/><line class="cls-3" x1="101.5" y1="287" x2="101.5" y2="312.45"/><path class="cls-4" d="M101.5,321.5a45.51,45.51,0,0,0-7.13-12.82l7.13,2.58,7.13-2.58A45.51,45.51,0,0,0,101.5,321.5Z"/><rect class="cls-5" x="55.2" y="322.5" width="99" height="39"/><path d="M153.7,323v38h-98V323h98m1-1H54.7v40h100V322Z"/><path class="cls-1" d="M76,343.87a4.67,4.67,0,0,0,1.58,1.19,4.54,4.54,0,0,0,1.78.37,4,4,0,0,0,1.15-.16,2.59,2.59,0,0,0,.84-.45,1.75,1.75,0,0,0,.52-.64,1.66,1.66,0,0,0,.18-.75,1.56,1.56,0,0,0-.24-.91,1.73,1.73,0,0,0-.61-.56,4,4,0,0,0-.89-.34l-1-.23-.16,0-.76-.15a7.44,7.44,0,0,1-.78-.2,6.81,6.81,0,0,1-.74-.31,2.65,2.65,0,0,1-1.47-2.49,2.8,2.8,0,0,1,.22-1.06,2.88,2.88,0,0,1,.71-1,3.75,3.75,0,0,1,1.24-.74,5.26,5.26,0,0,1,1.84-.29,5.47,5.47,0,0,1,2.2.43,5.15,5.15,0,0,1,.8.43,4.51,4.51,0,0,1,.74.61l-1,.85a3.57,3.57,0,0,0-1.32-.85,4.37,4.37,0,0,0-1.51-.27,3.52,3.52,0,0,0-1,.14,2.32,2.32,0,0,0-.79.38,1.71,1.71,0,0,0-.5.58,1.44,1.44,0,0,0-.18.71A1.51,1.51,0,0,0,77,339a1.84,1.84,0,0,0,.61.53,3.4,3.4,0,0,0,.85.3l1,.22h.08c.52.11,1,.23,1.51.36a4.69,4.69,0,0,1,1.28.57,2.94,2.94,0,0,1,.87.92,2.74,2.74,0,0,1,.32,1.42,3.13,3.13,0,0,1-.25,1.22,3.17,3.17,0,0,1-.77,1.06,3.67,3.67,0,0,1-1.29.74,5.24,5.24,0,0,1-1.82.28,6,6,0,0,1-2.76-.63,6.22,6.22,0,0,1-.84-.53,6.28,6.28,0,0,1-.8-.71Z"/><path class="cls-1" d="M91.47,346.46H90.16v-.91a2.37,2.37,0,0,1-1,.81,3.19,3.19,0,0,1-1.33.26,2.84,2.84,0,0,1-1.17-.22,2.28,2.28,0,0,1-.83-.59,2.38,2.38,0,0,1-.51-.87,3.24,3.24,0,0,1-.17-1v-5.42h1.32v5a2.67,2.67,0,0,0,.13.9A1.5,1.5,0,0,0,87,345a1.27,1.27,0,0,0,.52.34,2,2,0,0,0,.65.11,2.19,2.19,0,0,0,.77-.14,1.76,1.76,0,0,0,.65-.41,1.88,1.88,0,0,0,.45-.69,2.42,2.42,0,0,0,.17-1v-4.73h1.31Z"/><path class="cls-1" d="M94.76,342.51a4.68,4.68,0,0,0,.14,1.14,2.92,2.92,0,0,0,.44.94,2.05,2.05,0,0,0,1.74.88,2.05,2.05,0,0,0,1.26-.39,2.24,2.24,0,0,0,.45-.42,3.74,3.74,0,0,0,.35-.53l1.09.62A3.21,3.21,0,0,1,99,346.11a3.37,3.37,0,0,1-.89.38,3.75,3.75,0,0,1-1,.13,3.52,3.52,0,0,1-1.51-.31,3.29,3.29,0,0,1-1.16-.86,3.91,3.91,0,0,1-.75-1.31,4.9,4.9,0,0,1-.26-1.66,5,5,0,0,1,.26-1.68,4.11,4.11,0,0,1,.75-1.31,3.41,3.41,0,0,1,1.16-.86,3.67,3.67,0,0,1,1.51-.31,3.75,3.75,0,0,1,1,.14,3.71,3.71,0,0,1,.89.37,3.15,3.15,0,0,1,.72.59,3.07,3.07,0,0,1,.52.77l-1.09.63a3.24,3.24,0,0,0-.35-.53,2,2,0,0,0-.45-.43,2.24,2.24,0,0,0-1.26-.39,2.08,2.08,0,0,0-1,.24,2.2,2.2,0,0,0-.72.64,3,3,0,0,0-.44.94,4.68,4.68,0,0,0-.14,1.14Z"/><path class="cls-1" d="M102.86,342.51a4.24,4.24,0,0,0,.15,1.14,2.71,2.71,0,0,0,.43.94,2.13,2.13,0,0,0,.73.64,2,2,0,0,0,1,.24,2.05,2.05,0,0,0,1.26-.39,2.24,2.24,0,0,0,.45-.42,3,3,0,0,0,.35-.53l1.09.62a2.68,2.68,0,0,1-.52.77,2.91,2.91,0,0,1-.72.59,3.37,3.37,0,0,1-.89.38,3.75,3.75,0,0,1-1,.13,3.55,3.55,0,0,1-1.51-.31,3.38,3.38,0,0,1-1.16-.86,3.91,3.91,0,0,1-.75-1.31,5.16,5.16,0,0,1-.26-1.66,5.28,5.28,0,0,1,.26-1.68,4.11,4.11,0,0,1,.75-1.31,3.51,3.51,0,0,1,1.16-.86,3.7,3.7,0,0,1,1.51-.31,3.75,3.75,0,0,1,1,.14,3.71,3.71,0,0,1,.89.37,3.15,3.15,0,0,1,.72.59,2.82,2.82,0,0,1,.52.77l-1.09.63a2.7,2.7,0,0,0-.35-.53,2,2,0,0,0-.45-.43,2.24,2.24,0,0,0-1.26-.39,2,2,0,0,0-1,.24,2.24,2.24,0,0,0-.73.64,2.8,2.8,0,0,0-.43.94,4.24,4.24,0,0,0-.15,1.14Z"/><path class="cls-1" d="M111,342.88a3.85,3.85,0,0,0,.23,1,2.71,2.71,0,0,0,.51.82,2.33,2.33,0,0,0,.77.54,2.38,2.38,0,0,0,1,.19,2.87,2.87,0,0,0,1.17-.22,4.12,4.12,0,0,0,.92-.56l.67.95a4.65,4.65,0,0,1-1.24.7,4.19,4.19,0,0,1-1.58.28,3.76,3.76,0,0,1-1.57-.31,3.35,3.35,0,0,1-1.2-.86,3.62,3.62,0,0,1-.76-1.31,4.94,4.94,0,0,1-.27-1.66,5.28,5.28,0,0,1,.26-1.68,4.09,4.09,0,0,1,.74-1.31,3.44,3.44,0,0,1,1.14-.86,3.53,3.53,0,0,1,1.48-.31,3.29,3.29,0,0,1,1.42.31,3.22,3.22,0,0,1,1.08.86,4.17,4.17,0,0,1,.68,1.31,5.55,5.55,0,0,1,.24,1.66v.42Zm2.2-3.41a2,2,0,0,0-.89.2,2.12,2.12,0,0,0-.67.52,2.7,2.7,0,0,0-.44.76,3.21,3.21,0,0,0-.18.87h4.23a3.26,3.26,0,0,0-.16-.88,2.46,2.46,0,0,0-.41-.75,2,2,0,0,0-.63-.52A1.81,1.81,0,0,0,113.17,339.47Z"/><path class="cls-1" d="M123.81,344.25a2,2,0,0,1-.25,1,2.3,2.3,0,0,1-.65.74,2.7,2.7,0,0,1-.93.46,3.58,3.58,0,0,1-1.08.16,4.81,4.81,0,0,1-1.69-.3,4.51,4.51,0,0,1-1.43-.86l.72-.93c.12.11.27.22.43.34a4.21,4.21,0,0,0,.55.33,3.46,3.46,0,0,0,.66.25,2.55,2.55,0,0,0,.74.1,2.43,2.43,0,0,0,.61-.08,1.92,1.92,0,0,0,.52-.24,1.26,1.26,0,0,0,.34-.39.91.91,0,0,0,.13-.5.93.93,0,0,0-.13-.52,1.31,1.31,0,0,0-.38-.36,2.26,2.26,0,0,0-.54-.26l-.66-.22-.5-.16c-.28-.1-.55-.2-.81-.32a2.74,2.74,0,0,1-.69-.45,2,2,0,0,1-.48-.62,2.11,2.11,0,0,1,0-1.66,2.14,2.14,0,0,1,.52-.73,2.94,2.94,0,0,1,.91-.52,3.8,3.8,0,0,1,1.29-.2,4.29,4.29,0,0,1,2.7,1l-.69.94a2.64,2.64,0,0,0-.4-.31,3.4,3.4,0,0,0-.5-.26,3.69,3.69,0,0,0-.56-.19,2.78,2.78,0,0,0-.57-.07,2.52,2.52,0,0,0-.73.1,1.4,1.4,0,0,0-.47.26.87.87,0,0,0-.26.35.92.92,0,0,0-.09.38.83.83,0,0,0,.12.46,1,1,0,0,0,.31.31,1.83,1.83,0,0,0,.44.23l.51.19.65.22a7,7,0,0,1,.86.33,3.79,3.79,0,0,1,.69.4,2.1,2.1,0,0,1,.58.69A2,2,0,0,1,123.81,344.25Z"/><path class="cls-1" d="M131.17,344.25a2,2,0,0,1-.25,1,2.3,2.3,0,0,1-.65.74,2.7,2.7,0,0,1-.93.46,3.58,3.58,0,0,1-1.08.16,4.81,4.81,0,0,1-1.69-.3,4.51,4.51,0,0,1-1.43-.86l.72-.93c.12.11.27.22.43.34a4.21,4.21,0,0,0,.55.33,3.23,3.23,0,0,0,.66.25,2.55,2.55,0,0,0,.74.1,2.43,2.43,0,0,0,.61-.08,1.92,1.92,0,0,0,.52-.24,1.26,1.26,0,0,0,.34-.39.91.91,0,0,0,.13-.5.93.93,0,0,0-.13-.52,1.31,1.31,0,0,0-.38-.36,2.26,2.26,0,0,0-.54-.26l-.66-.22-.5-.16c-.28-.1-.55-.2-.81-.32a2.74,2.74,0,0,1-.69-.45,2,2,0,0,1-.48-.62,2,2,0,0,1,0-1.66,2.14,2.14,0,0,1,.52-.73,2.94,2.94,0,0,1,.91-.52,3.8,3.8,0,0,1,1.29-.2,4.35,4.35,0,0,1,2.7,1l-.69.94a2.31,2.31,0,0,0-.41-.31,2.62,2.62,0,0,0-.5-.26,3.24,3.24,0,0,0-.55-.19,2.78,2.78,0,0,0-.57-.07,2.52,2.52,0,0,0-.73.1,1.31,1.31,0,0,0-.47.26,1,1,0,0,0-.27.35,1.08,1.08,0,0,0-.08.38.83.83,0,0,0,.12.46,1,1,0,0,0,.31.31,1.83,1.83,0,0,0,.44.23l.51.19.65.22a7,7,0,0,1,.86.33,3.79,3.79,0,0,1,.69.4,2.23,2.23,0,0,1,.58.69A2,2,0,0,1,131.17,344.25Z"/><rect class="cls-6" x="197.5" y="322.5" width="99" height="39"/><path d="M296,323v38H198V323h98m1-1H197v40H297V322Z"/><path class="cls-1" d="M224.53,335.26h6.7v1.19h-5.32v3.68h4.89v1.19h-4.89v5.14h-1.38Z"/><path class="cls-1" d="M237.2,345.67a2.67,2.67,0,0,1-.95.68,3.33,3.33,0,0,1-1.4.27,3.29,3.29,0,0,1-1.1-.17,2.58,2.58,0,0,1-.88-.48,2.2,2.2,0,0,1-.59-.76,2.29,2.29,0,0,1-.21-1,2.35,2.35,0,0,1,.15-.86,2,2,0,0,1,.43-.67,2.34,2.34,0,0,1,.67-.48,3.24,3.24,0,0,1,.88-.25l2.82-.38v-.51a1.88,1.88,0,0,0-.14-.76,1.37,1.37,0,0,0-.38-.49,1.49,1.49,0,0,0-.57-.26,3.06,3.06,0,0,0-.7-.08,4.25,4.25,0,0,0-1.25.19,6.37,6.37,0,0,0-1,.44l-.49-1a5.19,5.19,0,0,1,1.44-.56,6.39,6.39,0,0,1,1.49-.18,3.26,3.26,0,0,1,2.21.66,2.44,2.44,0,0,1,.75,1.93v3.68a1.36,1.36,0,0,0,.15.67,1.05,1.05,0,0,0,.5.42l-.74.94a1.45,1.45,0,0,1-.64-.33,1.25,1.25,0,0,1-.38-.58Zm-2.33-2.76a4.48,4.48,0,0,0-.6.13,1.8,1.8,0,0,0-.46.23,1.07,1.07,0,0,0-.4.87,1.39,1.39,0,0,0,.14.63,1.16,1.16,0,0,0,.36.46,1.55,1.55,0,0,0,.52.29,2.18,2.18,0,0,0,.63.09,2.46,2.46,0,0,0,.72-.1,2.14,2.14,0,0,0,.63-.29,1.52,1.52,0,0,0,.44-.47,1.18,1.18,0,0,0,.17-.62v-1.54Z"/><path class="cls-1" d="M240.47,336.18a.86.86,0,0,1,.07-.36,1,1,0,0,1,.2-.28.84.84,0,0,1,.29-.2.85.85,0,0,1,.35-.08.82.82,0,0,1,.35.08.84.84,0,0,1,.29.2.77.77,0,0,1,.19.28.86.86,0,0,1,.08.36.85.85,0,0,1-.08.35.81.81,0,0,1-.19.29,1,1,0,0,1-.29.2.81.81,0,0,1-.35.07A.84.84,0,0,1,241,337a1,1,0,0,1-.49-.49A.84.84,0,0,1,240.47,336.18ZM242,346.46h-1.31v-8H242Z"/><path class="cls-1" d="M244.37,335.26h1.31v9.42a1.72,1.72,0,0,0,0,.34.66.66,0,0,0,.13.25.42.42,0,0,0,.23.15,1.09,1.09,0,0,0,.38.05h.46l.36,0,.13,1.1-.45,0-.43,0h-.45a2.78,2.78,0,0,1-.66-.08,1.66,1.66,0,0,1-.55-.27,1.44,1.44,0,0,1-.36-.48,1.77,1.77,0,0,1-.13-.73Z"/><path class="cls-1" d="M254.9,346.46h-1.31v-.91a2.46,2.46,0,0,1-1,.81,3.19,3.19,0,0,1-1.33.26,2.79,2.79,0,0,1-1.16-.22,2.24,2.24,0,0,1-.84-.59,2.51,2.51,0,0,1-.5-.87,3,3,0,0,1-.17-1v-5.42h1.31v5a2.67,2.67,0,0,0,.13.9,1.62,1.62,0,0,0,.35.59,1.27,1.27,0,0,0,.52.34,2,2,0,0,0,.65.11,2.29,2.29,0,0,0,.78-.14,1.93,1.93,0,0,0,.65-.41,1.88,1.88,0,0,0,.45-.69,2.61,2.61,0,0,0,.17-1v-4.73h1.31Z"/><path class="cls-1" d="M261.38,339.65h-.21a3.85,3.85,0,0,0-1,.12,2,2,0,0,0-.81.42,2.13,2.13,0,0,0-.56.83,3.71,3.71,0,0,0-.21,1.35v4.09H257.3v-8h1.32v1.27a2.19,2.19,0,0,1,1-1.06,2.34,2.34,0,0,1,.68-.26,3.06,3.06,0,0,1,.74-.09h.38Z"/><path class="cls-1" d="M263.62,342.88a3.5,3.5,0,0,0,.22,1,2.55,2.55,0,0,0,.52.82,2.29,2.29,0,0,0,.76.54,2.41,2.41,0,0,0,1,.19,2.87,2.87,0,0,0,1.17-.22,4.18,4.18,0,0,0,.93-.56l.67.95a4.88,4.88,0,0,1-1.25.7,4.19,4.19,0,0,1-1.58.28,3.79,3.79,0,0,1-1.57-.31,3.35,3.35,0,0,1-1.2-.86,3.62,3.62,0,0,1-.76-1.31,4.94,4.94,0,0,1-.27-1.66,5.28,5.28,0,0,1,.26-1.68,4.09,4.09,0,0,1,.74-1.31,3.44,3.44,0,0,1,1.14-.86,3.6,3.6,0,0,1,1.48-.31,3.29,3.29,0,0,1,1.42.31,3.22,3.22,0,0,1,1.08.86,4,4,0,0,1,.68,1.31,5.55,5.55,0,0,1,.24,1.66v.42Zm2.19-3.41a2,2,0,0,0-.89.2,2.12,2.12,0,0,0-.67.52,2.46,2.46,0,0,0-.43.76,2.88,2.88,0,0,0-.19.87h4.23a3.26,3.26,0,0,0-.16-.88,2.26,2.26,0,0,0-.41-.75,1.87,1.87,0,0,0-.63-.52A1.81,1.81,0,0,0,265.81,339.47Z"/><line class="cls-3" x1="246.5" y1="288.5" x2="246.5" y2="312.45"/><path class="cls-4" d="M246.5,321.5a45.51,45.51,0,0,0-7.13-12.82l7.13,2.58,7.13-2.58A45.51,45.51,0,0,0,246.5,321.5Z"/><line class="cls-2" x1="202" y1="266.5" x2="212" y2="266.5"/><line class="cls-2" x1="214" y1="266.5" x2="224" y2="266.5"/><line class="cls-2" x1="226" y1="266.5" x2="236" y2="266.5"/><line class="cls-2" x1="246.5" y1="265" x2="246.5" y2="275"/><line class="cls-2" x1="246.5" y1="253" x2="246.5" y2="263"/><line class="cls-2" x1="246.5" y1="241" x2="246.5" y2="251"/><line class="cls-2" x1="246.5" y1="229" x2="246.5" y2="239"/><line class="cls-2" x1="246.5" y1="217" x2="246.5" y2="227"/><line class="cls-2" x1="212" y1="206.5" x2="202" y2="206.5"/><line class="cls-2" x1="224" y1="206.5" x2="214" y2="206.5"/><line class="cls-2" x1="248" y1="206.5" x2="238" y2="206.5"/><line class="cls-2" x1="246.5" y1="205" x2="246.5" y2="215"/><line class="cls-2" x1="236" y1="206.5" x2="226" y2="206.5"/><line class="cls-2" x1="246.5" y1="277" x2="246.5" y2="287"/><line class="cls-2" x1="238" y1="266.5" x2="248" y2="266.5"/><path d="M214.56,250.66h5.86v1h-4.66v3.22H220v1h-4.28v4.5h-1.2Z"/><path d="M225.65,259.77a2.57,2.57,0,0,1-.84.59,2.85,2.85,0,0,1-1.22.24,3.34,3.34,0,0,1-1-.14,2.32,2.32,0,0,1-.77-.43,1.84,1.84,0,0,1-.51-.66,2.07,2.07,0,0,1-.19-.88,2,2,0,0,1,.14-.75,1.77,1.77,0,0,1,1-1,2.59,2.59,0,0,1,.76-.23l2.47-.33v-.45a1.62,1.62,0,0,0-.12-.66,1.1,1.1,0,0,0-.33-.43,1.37,1.37,0,0,0-.49-.22,2.45,2.45,0,0,0-.62-.07,3.5,3.5,0,0,0-1.09.16,6.07,6.07,0,0,0-.92.38l-.43-.91a4.85,4.85,0,0,1,1.26-.49,5.83,5.83,0,0,1,1.3-.15,2.8,2.8,0,0,1,1.93.58,2.11,2.11,0,0,1,.66,1.68v3.22a1.17,1.17,0,0,0,.14.59.88.88,0,0,0,.43.37l-.65.82a1.31,1.31,0,0,1-.56-.29,1.1,1.1,0,0,1-.33-.5Zm-2.05-2.42a3.62,3.62,0,0,0-.52.12,1.36,1.36,0,0,0-.4.2,1,1,0,0,0-.26.31,1.06,1.06,0,0,0-.09.45,1.2,1.2,0,0,0,.12.55,1,1,0,0,0,.31.4,1.29,1.29,0,0,0,.46.25,1.71,1.71,0,0,0,.55.09,2.18,2.18,0,0,0,.63-.09,1.85,1.85,0,0,0,.55-.25,1.34,1.34,0,0,0,.38-.41,1,1,0,0,0,.15-.55v-1.35Z"/><path d="M228.5,251.46a.67.67,0,0,1,.07-.31.85.85,0,0,1,.17-.25.74.74,0,0,1,.25-.17.72.72,0,0,1,.62,0,.74.74,0,0,1,.25.17.85.85,0,0,1,.17.25.72.72,0,0,1,0,.62.78.78,0,0,1-.17.26.92.92,0,0,1-.25.17.83.83,0,0,1-.62,0,.92.92,0,0,1-.25-.17.78.78,0,0,1-.17-.26A.67.67,0,0,1,228.5,251.46Zm1.36,9h-1.15v-7h1.15Z"/><path d="M231.91,250.66h1.15v8.24a1.39,1.39,0,0,0,0,.3.51.51,0,0,0,.11.22.44.44,0,0,0,.21.13,1,1,0,0,0,.33.05l.4,0,.31,0,.12,1-.4,0-.38,0h-.39a2.25,2.25,0,0,1-.58-.07,1.23,1.23,0,0,1-.47-.24,1.12,1.12,0,0,1-.32-.42,1.49,1.49,0,0,1-.12-.64Z"/><path d="M215.56,190.66h5.86v1h-4.66v3.22H221v1h-4.28v4.5h-1.2Z"/><path d="M226.65,199.77a2.57,2.57,0,0,1-.84.59,2.85,2.85,0,0,1-1.22.24,3.34,3.34,0,0,1-1-.14,2.32,2.32,0,0,1-.77-.43,1.84,1.84,0,0,1-.51-.66,2.07,2.07,0,0,1-.19-.88,2,2,0,0,1,.14-.75,1.77,1.77,0,0,1,1-1,2.59,2.59,0,0,1,.76-.23l2.47-.33v-.45a1.62,1.62,0,0,0-.12-.66,1.1,1.1,0,0,0-.33-.43,1.37,1.37,0,0,0-.49-.22,2.45,2.45,0,0,0-.62-.07,3.5,3.5,0,0,0-1.09.16,6.07,6.07,0,0,0-.92.38l-.43-.91a4.85,4.85,0,0,1,1.26-.49,5.83,5.83,0,0,1,1.3-.15,2.8,2.8,0,0,1,1.93.58,2.11,2.11,0,0,1,.66,1.68v3.22a1.17,1.17,0,0,0,.14.59.88.88,0,0,0,.43.37l-.65.82a1.31,1.31,0,0,1-.56-.29,1.1,1.1,0,0,1-.33-.5Zm-2.05-2.42a3.62,3.62,0,0,0-.52.12,1.36,1.36,0,0,0-.4.2,1,1,0,0,0-.26.31,1.06,1.06,0,0,0-.09.45,1.2,1.2,0,0,0,.12.55,1,1,0,0,0,.31.4,1.29,1.29,0,0,0,.46.25,1.71,1.71,0,0,0,.55.09,2.18,2.18,0,0,0,.63-.09,1.85,1.85,0,0,0,.55-.25,1.34,1.34,0,0,0,.38-.41,1,1,0,0,0,.15-.55v-1.35Z"/><path d="M229.5,191.46a.67.67,0,0,1,.07-.31.85.85,0,0,1,.17-.25.74.74,0,0,1,.25-.17.72.72,0,0,1,.62,0,.74.74,0,0,1,.25.17.85.85,0,0,1,.17.25.72.72,0,0,1,0,.62.78.78,0,0,1-.17.26.92.92,0,0,1-.25.17.83.83,0,0,1-.62,0,.92.92,0,0,1-.25-.17.78.78,0,0,1-.17-.26A.67.67,0,0,1,229.5,191.46Zm1.36,9h-1.15v-7h1.15Z"/><path d="M232.91,190.66h1.15v8.24a1.39,1.39,0,0,0,0,.3.51.51,0,0,0,.11.22.44.44,0,0,0,.21.13,1,1,0,0,0,.33,0l.4,0,.31,0,.12,1-.4,0-.38,0h-.39a2.25,2.25,0,0,1-.58-.07,1.23,1.23,0,0,1-.47-.24,1.12,1.12,0,0,1-.32-.42,1.49,1.49,0,0,1-.12-.64Z"/></svg>